# xmcd CD database file
#
# Track frame offsets:
#	150
#	23225
#	45395
#	68502
#
# Disc length: 1206 seconds
#
# Revision: 4
# Processed by: cddbd v1.5.2PL0 Copyright (c) Steve Scherf et al.
# Submitted via: CD2WAV32(JP) R3.22
#
DISCID=2604b404
DTITLE=ENDLICHERI☆ENDLICHERI - The Rainbow Star
DYEAR=2006
DGENRE=JPop
TTITLE0=The Rainbow Star
TTITLE1=いきてゆくことが
TTITLE2=The Rainbow Star(Backing Track)
TTITLE3=いきてゆくことが(Backing Track)
EXTD=
EXTT0=
EXTT1=
EXTT2=
EXTT3=
PLAYORDER=
